<svg width="32" height="33" viewBox="0 0 32 33" fill="none" xmlns="http://www.w3.org/2000/svg">
<path d="M12 11.5C11.4477 11.5 11 11.9477 11 12.5V14.5C11 15.0523 11.4477 15.5 12 15.5H14C14.5523 15.5 15 15.0523 15 14.5V12.5C15 11.9477 14.5523 11.5 14 11.5H12Z" fill="#00395C" fill-opacity="0.8"/>
<path d="M12 17.5C11.4477 17.5 11 17.9477 11 18.5V20.5C11 21.0523 11.4477 21.5 12 21.5H14C14.5523 21.5 15 21.0523 15 20.5V18.5C15 17.9477 14.5523 17.5 14 17.5H12Z" fill="#00395C" fill-opacity="0.8"/>
<path d="M18 11.5C17.4477 11.5 17 11.9477 17 12.5V14.5C17 15.0523 17.4477 15.5 18 15.5H20C20.5523 15.5 21 15.0523 21 14.5V12.5C21 11.9477 20.5523 11.5 20 11.5H18Z" fill="#00395C" fill-opacity="0.8"/>
<path d="M18 17.5C17.4477 17.5 17 17.9477 17 18.5V20.5C17 21.0523 17.4477 21.5 18 21.5H20C20.5523 21.5 21 21.0523 21 20.5V18.5C21 17.9477 20.5523 17.5 20 17.5H18Z" fill="#00395C" fill-opacity="0.8"/>
</svg>
