<svg width="32" height="33" viewBox="0 0 32 33" fill="none" xmlns="http://www.w3.org/2000/svg">
<path d="M16 9.5C15.4477 9.5 15 9.94772 15 10.5C15 10.542 15.0026 10.5834 15.0076 10.6241C13.2785 11.0655 12 12.6334 12 14.5V17.5C11.4477 17.5 11 17.9477 11 18.5C11 19.0523 11.4477 19.5 12 19.5H20C20.5523 19.5 21 19.0523 21 18.5C21 17.9477 20.5523 17.5 20 17.5V14.5C20 12.6334 18.7215 11.0655 16.9924 10.6241C16.9974 10.5834 17 10.542 17 10.5C17 9.94772 16.5523 9.5 16 9.5Z" fill="#00395C" fill-opacity="0.8"/>
<path d="M18 20.5C18 21.6046 17.1046 22.5 16 22.5C14.8954 22.5 14 21.6046 14 20.5H18Z" fill="#00395C" fill-opacity="0.8"/>
</svg>
