<svg width="17" height="15" viewBox="0 0 17 15" fill="none" xmlns="http://www.w3.org/2000/svg">
<path d="M0.600573 6.85881C2.28392 5.93157 4.163 5.15769 5.91872 4.37985C8.93924 3.10581 11.9718 1.85385 15.0349 0.688292C15.6309 0.489692 16.7017 0.295472 16.8067 1.17867C16.7492 2.42883 16.5127 3.67167 16.3504 4.91451C15.9387 7.64763 15.4627 10.3714 14.9986 13.0955C14.8387 14.0029 13.702 14.4726 12.9747 13.892C11.2268 12.7113 9.46544 11.5421 7.73984 10.3341C7.17458 9.75969 7.69874 8.93487 8.20358 8.52471C9.64322 7.10595 11.17 5.90055 12.5344 4.40847C12.9024 3.51969 11.815 4.26873 11.4563 4.49823C9.48542 5.85639 7.56278 7.29747 5.48486 8.49111C4.42346 9.07539 3.18638 8.57607 2.12546 8.25003C1.17421 7.85619 -0.219723 7.45941 0.600477 6.85887L0.600573 6.85881Z" fill="white" fill-opacity="0.8"/>
</svg>
