<svg xmlns="http://www.w3.org/2000/svg">

    <symbol id="icon-bell" viewBox="0 0 32 33" fill="none" xmlns="http://www.w3.org/2000/svg">
        <path d="M16 9.5C15.4477 9.5 15 9.94772 15 10.5C15 10.542 15.0026 10.5834 15.0076 10.6241C13.2785 11.0655 12 12.6334 12 14.5V17.5C11.4477 17.5 11 17.9477 11 18.5C11 19.0523 11.4477 19.5 12 19.5H20C20.5523 19.5 21 19.0523 21 18.5C21 17.9477 20.5523 17.5 20 17.5V14.5C20 12.6334 18.7215 11.0655 16.9924 10.6241C16.9974 10.5834 17 10.542 17 10.5C17 9.94772 16.5523 9.5 16 9.5Z" fill="currentColor"/>
        <path d="M18 20.5C18 21.6046 17.1046 22.5 16 22.5C14.8954 22.5 14 21.6046 14 20.5H18Z" fill="currentColor"/>
    </symbol>

    <symbol id="icon-menu" viewBox="0 0 32 33" fill="none" xmlns="http://www.w3.org/2000/svg">
        <path d="M12 11.5C11.4477 11.5 11 11.9477 11 12.5V14.5C11 15.0523 11.4477 15.5 12 15.5H14C14.5523 15.5 15 15.0523 15 14.5V12.5C15 11.9477 14.5523 11.5 14 11.5H12Z" fill="currentColor"/>
        <path d="M12 17.5C11.4477 17.5 11 17.9477 11 18.5V20.5C11 21.0523 11.4477 21.5 12 21.5H14C14.5523 21.5 15 21.0523 15 20.5V18.5C15 17.9477 14.5523 17.5 14 17.5H12Z" fill="currentColor"/>
        <path d="M18 11.5C17.4477 11.5 17 11.9477 17 12.5V14.5C17 15.0523 17.4477 15.5 18 15.5H20C20.5523 15.5 21 15.0523 21 14.5V12.5C21 11.9477 20.5523 11.5 20 11.5H18Z" fill="currentColor"/>
        <path d="M18 17.5C17.4477 17.5 17 17.9477 17 18.5V20.5C17 21.0523 17.4477 21.5 18 21.5H20C20.5523 21.5 21 21.0523 21 20.5V18.5C21 17.9477 20.5523 17.5 20 17.5H18Z" fill="currentColor"/>
    </symbol>







    <symbol id="icon-search" viewBox="0 0 25 24" fill="none" xmlns="http://www.w3.org/2000/svg">
        <path d="M18.3591 16.6168L22.6418 20.8995L21.2276 22.3137L16.9449 18.031C15.405 19.263 13.4521 20 11.3281 20C6.36013 20 2.32812 15.968 2.32812 11C2.32812 6.032 6.36013 2 11.3281 2C16.2961 2 20.3281 6.032 20.3281 11C20.3281 13.124 19.5911 15.0769 18.3591 16.6168ZM16.3528 15.8748C17.5756 14.6146 18.3281 12.8956 18.3281 11C18.3281 7.1325 15.1956 4 11.3281 4C7.46062 4 4.32812 7.1325 4.32812 11C4.32812 14.8675 7.46062 18 11.3281 18C13.2237 18 14.9427 17.2475 16.2029 16.0247L16.3528 15.8748Z" fill="currentColor"/>
    </symbol>

    <symbol id="icon-genres" viewBox="0 0 24 24" fill="none" xmlns="http://www.w3.org/2000/svg">
        <path d="M7 11.5C4.51472 11.5 2.5 9.48528 2.5 7C2.5 4.51472 4.51472 2.5 7 2.5C9.48528 2.5 11.5 4.51472 11.5 7C11.5 9.48528 9.48528 11.5 7 11.5ZM7 21.5C4.51472 21.5 2.5 19.4853 2.5 17C2.5 14.5147 4.51472 12.5 7 12.5C9.48528 12.5 11.5 14.5147 11.5 17C11.5 19.4853 9.48528 21.5 7 21.5ZM17 11.5C14.5147 11.5 12.5 9.48528 12.5 7C12.5 4.51472 14.5147 2.5 17 2.5C19.4853 2.5 21.5 4.51472 21.5 7C21.5 9.48528 19.4853 11.5 17 11.5ZM17 21.5C14.5147 21.5 12.5 19.4853 12.5 17C12.5 14.5147 14.5147 12.5 17 12.5C19.4853 12.5 21.5 14.5147 21.5 17C21.5 19.4853 19.4853 21.5 17 21.5ZM7 9.5C8.38071 9.5 9.5 8.38071 9.5 7C9.5 5.61929 8.38071 4.5 7 4.5C5.61929 4.5 4.5 5.61929 4.5 7C4.5 8.38071 5.61929 9.5 7 9.5ZM7 19.5C8.38071 19.5 9.5 18.3807 9.5 17C9.5 15.6193 8.38071 14.5 7 14.5C5.61929 14.5 4.5 15.6193 4.5 17C4.5 18.3807 5.61929 19.5 7 19.5ZM17 9.5C18.3807 9.5 19.5 8.38071 19.5 7C19.5 5.61929 18.3807 4.5 17 4.5C15.6193 4.5 14.5 5.61929 14.5 7C14.5 8.38071 15.6193 9.5 17 9.5ZM17 19.5C18.3807 19.5 19.5 18.3807 19.5 17C19.5 15.6193 18.3807 14.5 17 14.5C15.6193 14.5 14.5 15.6193 14.5 17C14.5 18.3807 15.6193 19.5 17 19.5Z" fill="currentColor"/>
    </symbol>

    <symbol id="icon-email" viewBox="0 0 22 19" fill="none" xmlns="http://www.w3.org/2000/svg">
        <path d="M21 0.75C21.5523 0.75 22 1.19772 22 1.75V17.7566C22 18.3052 21.5447 18.75 21.0082 18.75H2.9918C2.44405 18.75 2 18.3051 2 17.7566V16.75H20V5.05L12 12.25L2 3.25V1.75C2 1.19772 2.44772 0.75 3 0.75H21ZM8 12.75V14.75H0V12.75H8ZM5 7.75V9.75H0V7.75H5ZM19.5659 2.75H4.43414L12 9.5593L19.5659 2.75Z" fill="currentColor"/>
    </symbol>

    <symbol id="icon-user" viewBox="0 0 16 22" fill="none" xmlns="http://www.w3.org/2000/svg">
        <path d="M0 21.75C0 17.3317 3.58172 13.75 8 13.75C12.4183 13.75 16 17.3317 16 21.75H14C14 18.4363 11.3137 15.75 8 15.75C4.68629 15.75 2 18.4363 2 21.75H0ZM8 12.75C4.685 12.75 2 10.065 2 6.75C2 3.435 4.685 0.75 8 0.75C11.315 0.75 14 3.435 14 6.75C14 10.065 11.315 12.75 8 12.75ZM8 10.75C10.21 10.75 12 8.96 12 6.75C12 4.54 10.21 2.75 8 2.75C5.79 2.75 4 4.54 4 6.75C4 8.96 5.79 10.75 8 10.75Z" fill="currentColor"/>
    </symbol>

    <symbol id="icon-password" viewBox="0 0 22 13" fill="none" xmlns="http://www.w3.org/2000/svg">
        <path d="M11.917 7.75C11.441 10.5877 8.973 12.75 6 12.75C2.68629 12.75 0 10.0637 0 6.75C0 3.43629 2.68629 0.75 6 0.75C8.973 0.75 11.441 2.91229 11.917 5.75H22V7.75H20V11.75H18V7.75H16V11.75H14V7.75H11.917ZM6 10.75C8.20914 10.75 10 8.9591 10 6.75C10 4.54086 8.20914 2.75 6 2.75C3.79086 2.75 2 4.54086 2 6.75C2 8.9591 3.79086 10.75 6 10.75Z" fill="currentColor"/>
    </symbol>

    <symbol id="icon-close" viewBox="0 0 24 24" fill="none" xmlns="http://www.w3.org/2000/svg">
        <path d="M11.9987 10.5865L16.9485 5.63672L18.3627 7.05093L13.4129 12.0007L18.3627 16.9504L16.9485 18.3646L11.9987 13.4149L7.04899 18.3646L5.63477 16.9504L10.5845 12.0007L5.63477 7.05093L7.04899 5.63672L11.9987 10.5865Z" fill="currentColor"/>
    </symbol>

    <symbol id="icon-ratingStar" viewBox="0 0 16 16" fill="none" xmlns="http://www.w3.org/2000/svg">
        <path d="M8.00056 12.1734L3.29826 14.8055L4.34848 9.51997L0.39209 5.86124L5.74345 5.22675L8.00056 0.333374L10.2576 5.22675L15.609 5.86124L11.6526 9.51997L12.7028 14.8055L8.00056 12.1734Z" fill="currentColor"/>  
    </symbol>

    <symbol id="icon-favorites" viewBox="0 0 24 24" fill="none" xmlns="http://www.w3.org/2000/svg">
        <path d="M16.5 3C19.5376 3 22 5.5 22 9C22 16 14.5 20 12 21.5C9.5 20 2 16 2 9C2 5.5 4.5 3 7.5 3C9.35997 3 11 4 12 5C13 4 14.64 3 16.5 3ZM12.9339 18.6038C13.8155 18.0485 14.61 17.4955 15.3549 16.9029C18.3337 14.533 20 11.9435 20 9C20 6.64076 18.463 5 16.5 5C15.4241 5 14.2593 5.56911 13.4142 6.41421L12 7.82843L10.5858 6.41421C9.74068 5.56911 8.5759 5 7.5 5C5.55906 5 4 6.6565 4 9C4 11.9435 5.66627 14.533 8.64514 16.9029C9.39 17.4955 10.1845 18.0485 11.0661 18.6038C11.3646 18.7919 11.6611 18.9729 12 19.1752C12.3389 18.9729 12.6354 18.7919 12.9339 18.6038Z" fill="currentColor"/>
    </symbol>

    <symbol id="icon-favorites-filled" viewBox="0 0 24 24" fill="none" xmlns="http://www.w3.org/2000/svg">
        <path d="M16.5 3C19.5376 3 22 5.5 22 9C22 16 14.5 20 12 21.5C9.5 20 2 16 2 9C2 5.5 4.5 3 7.5 3C9.35997 3 11 4 12 5C13 4 14.64 3 16.5 3Z" fill="#B4A9FF"/>
    </symbol>

    <symbol id="icon-update" viewBox="0 0 20 20" fill="none" xmlns="http://www.w3.org/2000/svg">
        <path d="M10 2C12.7486 2 15.1749 3.38626 16.6156 5.5H14V7.5H20V1.5H18V3.99936C16.1762 1.57166 13.2724 0 10 0C4.47715 0 0 4.47715 0 10H2C2 5.58172 5.58172 2 10 2ZM18 10C18 14.4183 14.4183 18 10 18C7.25144 18 4.82508 16.6137 3.38443 14.5H6V12.5H0V18.5H2V16.0006C3.82381 18.4283 6.72764 20 10 20C15.5228 20 20 15.5228 20 10H18Z" fill="currentColor"/>
    </symbol>

    <symbol id="icon-chevron" viewBox="0 0 40 40" fill="none" xmlns="http://www.w3.org/2000/svg">
        <path d="M18.047 20.0012L26.2967 28.2507L23.9397 30.6077L13.333 20.0012L23.9397 9.39453L26.2967 11.7515L18.047 20.0012Z" fill="currentColor"/>
    </symbol>

    <symbol id="icon-vk" viewBox="0 0 19 11" fill="none" xmlns="http://www.w3.org/2000/svg">
        <path fill-rule="evenodd" clip-rule="evenodd" d="M18.4875 1.37968C18.6262 0.985106 18.4875 0.698125 17.8729 0.698125H15.8308C15.3153 0.698125 15.0774 0.949207 14.9387 1.21829C14.9387 1.21829 13.8879 3.51408 12.4207 5.00273C11.9449 5.4332 11.7268 5.57669 11.4691 5.57669C11.3303 5.57669 11.1519 5.4332 11.1519 5.03862V1.36173C11.1519 0.895411 10.9933 0.680176 10.5571 0.680176H7.34533C7.02811 0.680176 6.82988 0.895411 6.82988 1.11065C6.82988 1.55907 7.56341 1.66666 7.64271 2.92217V5.64843C7.64271 6.24034 7.52379 6.34793 7.26603 6.34793C6.57213 6.34793 4.88694 4.03419 3.87581 1.39763C3.67752 0.877462 3.47929 0.680176 2.96384 0.680176H0.901906C0.307142 0.680176 0.208008 0.93131 0.208008 1.20034C0.208008 1.68461 0.901906 4.12389 3.43961 7.35236C5.12485 9.55846 7.52379 10.7422 9.6848 10.7422C10.9933 10.7422 11.1519 10.4732 11.1519 10.0248V8.3568C11.1519 7.81868 11.2708 7.72904 11.6872 7.72904C11.9846 7.72904 12.5199 7.87248 13.7292 8.9307C15.117 10.1862 15.355 10.7602 16.1282 10.7602H18.1703C18.765 10.7602 19.0426 10.4911 18.884 9.97098C18.7056 9.45087 18.0315 8.69757 17.1591 7.80073C16.6833 7.29857 15.9696 6.74256 15.7515 6.47347C15.4541 6.1148 15.5334 5.97131 15.7515 5.64843C15.7317 5.64843 18.2297 2.45585 18.4875 1.37968Z" fill="currentColor" fill-opacity="0.8"/>
    </symbol>

    <symbol id="icon-tg" viewBox="0 0 17 15" fill="none" xmlns="http://www.w3.org/2000/svg">
        <path d="M0.600573 6.85881C2.28392 5.93157 4.163 5.15769 5.91872 4.37985C8.93924 3.10581 11.9718 1.85385 15.0349 0.688292C15.6309 0.489692 16.7017 0.295472 16.8067 1.17867C16.7492 2.42883 16.5127 3.67167 16.3504 4.91451C15.9387 7.64763 15.4627 10.3714 14.9986 13.0955C14.8387 14.0029 13.702 14.4726 12.9747 13.892C11.2268 12.7113 9.46544 11.5421 7.73984 10.3341C7.17458 9.75969 7.69874 8.93487 8.20358 8.52471C9.64322 7.10595 11.17 5.90055 12.5344 4.40847C12.9024 3.51969 11.815 4.26873 11.4563 4.49823C9.48542 5.85639 7.56278 7.29747 5.48486 8.49111C4.42346 9.07539 3.18638 8.57607 2.12546 8.25003C1.17421 7.85619 -0.219723 7.45941 0.600477 6.85887L0.600573 6.85881Z" fill="currentColor" fill-opacity="0.8"/>
    </symbol>

    <symbol id="icon-ok" viewBox="0 0 12 19" fill="none" xmlns="http://www.w3.org/2000/svg">
        <path d="M7.91902 13.2623L10.5725 15.8239C11.116 16.3475 11.116 17.1979 10.5725 17.7221C10.0294 18.2462 9.14932 18.2462 8.60687 17.7221L5.99801 15.2049L3.39142 17.7221C3.11963 17.9839 2.76349 18.1149 2.40735 18.1149C2.05178 18.1149 1.69621 17.9839 1.42441 17.7221C0.881398 17.1979 0.881398 16.348 1.42385 15.8239L4.07758 13.2623C3.1114 13.0498 2.17958 12.6802 1.32132 12.1605C0.671803 11.7651 0.476693 10.937 0.885942 10.3094C1.29406 9.68109 2.15232 9.49193 2.80297 9.88725C4.74612 11.0672 7.24933 11.0674 9.19362 9.88725C9.84428 9.49193 10.7023 9.68109 11.1112 10.3094C11.5205 10.9364 11.3248 11.7651 10.6753 12.1605C9.81701 12.6808 8.8852 13.0498 7.91902 13.2623Z" fill="currentColor" fill-opacity="0.8"/>
        <path fill-rule="evenodd" clip-rule="evenodd" d="M1.24023 4.94198C1.24023 7.46795 3.36913 9.52267 5.98679 9.52267C8.60502 9.52267 10.7333 7.46795 10.7333 4.94198C10.7333 2.41518 8.60502 0.359909 5.98679 0.359909C3.36913 0.359909 1.24023 2.41518 1.24023 4.94198ZM7.95202 4.94149C7.95202 3.89535 7.07048 3.04468 5.98672 3.04468C4.90381 3.04468 4.02141 3.89535 4.02141 4.94149C4.02141 5.98681 4.90381 6.83803 5.98672 6.83803C7.07048 6.83803 7.95202 5.98681 7.95202 4.94149Z" fill="currentColor" fill-opacity="0.8"/>
    </symbol>

    <symbol id="icon-youtube" viewBox="0 0 16 12" fill="none" xmlns="http://www.w3.org/2000/svg">
        <path fill-rule="evenodd" clip-rule="evenodd" d="M14.0008 1.04957C14.6617 1.23093 15.1822 1.7653 15.3588 2.4439C15.6798 3.67379 15.6798 6.23997 15.6798 6.23997C15.6798 6.23997 15.6798 8.80606 15.3588 10.036C15.1822 10.7146 14.6617 11.249 14.0008 11.4305C12.8031 11.76 7.99982 11.76 7.99982 11.76C7.99982 11.76 3.1966 11.76 1.99878 11.4305C1.33786 11.249 0.817366 10.7146 0.640726 10.036C0.319824 8.80606 0.319824 6.23997 0.319824 6.23997C0.319824 6.23997 0.319824 3.67379 0.640726 2.4439C0.817366 1.7653 1.33786 1.23093 1.99878 1.04957C3.1966 0.719971 7.99982 0.719971 7.99982 0.719971C7.99982 0.719971 12.8031 0.719971 14.0008 1.04957ZM6.55979 4.0802V8.88021L10.3998 6.4803L6.55979 4.0802Z" fill="currentColor" fill-opacity="0.8"/>
    </symbol>


</svg>
